<svg width="295" height="31" viewBox="0 0 295 31" fill="none" xmlns="http://www.w3.org/2000/svg">
<path d="M14.9001 30.3148V7.4176H0.763184V2.22965H35.3842V7.4176H21.2953V30.3148H14.9001Z" fill="#F1F1F1"/>
<path d="M40.7114 30.3148V13.0736C40.7114 12.0854 41.0159 11.1883 41.625 10.3821C42.2341 9.57599 43.0355 8.92587 44.0293 8.43178C45.0551 7.93769 46.161 7.69065 47.3471 7.69065H62.8304V12.8006H47.5875C47.4272 12.8006 47.283 12.8526 47.1548 12.9566C47.0586 13.0346 47.0105 13.1386 47.0105 13.2687V30.3148H40.7114Z" fill="#F1F1F1"/>
<path d="M75.0503 30.3148C73.8321 30.3148 72.7101 30.0677 71.6843 29.5736C70.6906 29.0795 69.8892 28.4294 69.2801 27.6233C68.7031 26.8171 68.4146 25.92 68.4146 24.9318V16.4282H90.4374V13.2687C90.4374 13.1386 90.3733 13.0346 90.245 12.9566C90.1489 12.8526 90.0206 12.8006 89.8604 12.8006H68.4146V7.69065H90.1008C91.3189 7.69065 92.4249 7.93769 93.4186 8.43178C94.4444 8.92587 95.2458 9.57599 95.8229 10.3821C96.4319 11.1883 96.7365 12.0854 96.7365 13.0736V30.3148H75.0503ZM75.2907 25.2048H90.4374V21.0311H74.7137V24.7368C74.7137 24.8668 74.7618 24.9838 74.8579 25.0878C74.9862 25.1658 75.1304 25.2048 75.2907 25.2048Z" fill="#F1F1F1"/>
<path d="M108.966 30.3148C107.716 30.3148 106.594 30.0677 105.6 29.5736C104.606 29.0795 103.805 28.4294 103.196 27.6233C102.619 26.8171 102.33 25.92 102.33 24.9318V13.0736C102.33 12.0854 102.619 11.1883 103.196 10.3821C103.805 9.57599 104.606 8.92587 105.6 8.43178C106.594 7.93769 107.716 7.69065 108.966 7.69065H124.401V0.279297H130.7V30.3148H108.966ZM109.255 25.2048H123.824C123.985 25.2048 124.113 25.1658 124.209 25.0878C124.337 24.9838 124.401 24.8668 124.401 24.7368V13.2687C124.401 13.1386 124.337 13.0346 124.209 12.9566C124.113 12.8526 123.985 12.8006 123.824 12.8006H109.255C109.094 12.8006 108.95 12.8526 108.822 12.9566C108.726 13.0346 108.678 13.1386 108.678 13.2687V24.7368C108.678 24.8668 108.726 24.9838 108.822 25.0878C108.95 25.1658 109.094 25.2048 109.255 25.2048Z" fill="#F1F1F1"/>
<path d="M143.275 30.3148C142.057 30.3148 140.951 30.0677 139.957 29.5736C138.963 29.0795 138.162 28.4294 137.553 27.6233C136.944 26.8171 136.639 25.92 136.639 24.9318V13.0736C136.639 12.0854 136.944 11.1883 137.553 10.3821C138.162 9.57599 138.963 8.92587 139.957 8.43178C140.951 7.93769 142.057 7.69065 143.275 7.69065H158.325C159.544 7.69065 160.65 7.93769 161.643 8.43178C162.669 8.92587 163.47 9.57599 164.048 10.3821C164.657 11.1883 164.961 12.0854 164.961 13.0736V21.5772H142.938V24.7368C142.938 24.8668 142.986 24.9838 143.083 25.0878C143.211 25.1658 143.355 25.2048 143.515 25.2048H164.961V30.3148H143.275ZM142.938 16.9743H158.662V13.2687C158.662 13.1386 158.598 13.0346 158.47 12.9566C158.374 12.8526 158.245 12.8006 158.085 12.8006H143.515C143.355 12.8006 143.211 12.8526 143.083 12.9566C142.986 13.0346 142.938 13.1386 142.938 13.2687V16.9743Z" fill="#F1F1F1"/>
<path d="M172.096 30.3148V2.22965H179.068L191.618 14.3609L204.12 2.22965H211.141V30.3148H204.746V9.71902L191.618 22.3963L178.443 9.75803V30.3148H172.096Z" fill="#F1F1F1"/>
<path d="M218.437 30.3148V7.69065H224.736V30.3148H218.437ZM218.437 5.42824V0.279297H224.736V5.42824H218.437Z" fill="#F1F1F1"/>
<path d="M232.243 30.3148V7.69065H253.929C255.147 7.69065 256.253 7.93769 257.247 8.43178C258.273 8.92587 259.074 9.57599 259.651 10.3821C260.26 11.1883 260.565 12.0854 260.565 13.0736V30.3148H254.266V13.2687C254.266 13.1386 254.202 13.0346 254.073 12.9566C253.977 12.8526 253.849 12.8006 253.689 12.8006H239.119C238.959 12.8006 238.814 12.8526 238.686 12.9566C238.59 13.0346 238.542 13.1386 238.542 13.2687V30.3148H232.243Z" fill="#F1F1F1"/>
<path d="M272.792 30.3148C271.542 30.3148 270.42 30.0677 269.426 29.5736C268.432 29.0795 267.631 28.4294 267.022 27.6233C266.445 26.8171 266.156 25.92 266.156 24.9318V13.0736C266.156 12.0854 266.445 11.1883 267.022 10.3821C267.631 9.57599 268.432 8.92587 269.426 8.43178C270.42 7.93769 271.542 7.69065 272.792 7.69065H288.227V0.279297H294.526V30.3148H272.792ZM273.081 25.2048H287.65C287.811 25.2048 287.939 25.1658 288.035 25.0878C288.163 24.9838 288.227 24.8668 288.227 24.7368V13.2687C288.227 13.1386 288.163 13.0346 288.035 12.9566C287.939 12.8526 287.811 12.8006 287.65 12.8006H273.081C272.92 12.8006 272.776 12.8526 272.648 12.9566C272.552 13.0346 272.504 13.1386 272.504 13.2687V24.7368C272.504 24.8668 272.552 24.9838 272.648 25.0878C272.776 25.1658 272.92 25.2048 273.081 25.2048Z" fill="#F1F1F1"/>
</svg>
